<?xml version="1.0" encoding="utf-8"?>
<!-- Generator: Adobe Illustrator 25.4.8, SVG Export Plug-In . SVG Version: 6.00 Build 0)  -->
<svg version="1.1" id="Layer_1" xmlns="http://www.w3.org/2000/svg" xmlns:xlink="http://www.w3.org/1999/xlink" x="0px" y="0px"
	 viewBox="0 0 512 512" style="enable-background:new 0 0 512 512;" xml:space="preserve">
<style type="text/css">
	.st0{fill-rule:evenodd;clip-rule:evenodd;fill:#4088C8;}
	.st1{fill-rule:evenodd;clip-rule:evenodd;fill:#252569;}
</style>
<path class="st0" d="M439.6,492.3H71.9c-28.9,0-52.3-23.4-52.3-52.3V72.3c0-28.9,23.4-52.3,52.3-52.3h367.7
	c28.9,0,52.3,23.4,52.3,52.3V440C492,468.9,468.5,492.3,439.6,492.3z"/>
<path class="st1" d="M232.1,37.1c-6.5,1-15.1,3.9-21.5,7.1c-9.2,4.7-22,17.3-26,25.7c-1.6,3.3-3.9,6.8-5.2,7.8
	c-3.6,2.9-5.6,11.4-5.1,22.6c0.3,8.3,0.8,10.3,3.1,14.4c3,5.1,6.9,7.7,11.6,7.7c5.4,0,8.2,5.2,6.2,11.4c-1.5,4.4,0.6,8.8,5.1,11.2
	c3.1,1.6,12.3,1.6,19-0.1c2.3-0.6,2.9-0.2,4.2,2.4c2.4,4.7,2,5.8-2.8,7c-5,1.3-7.6,3.4-7.6,6.2c0,1.4-1.1,2.2-4.2,3
	c-2.3,0.6-6.5,1.7-9.2,2.5s-10.2,2.1-16.5,3s-13.5,2.5-15.8,3.5c-4.6,2-24.4,16.1-29.9,21.3c-3,2.9-3.5,3-6.6,1.9
	c-5.9-2.1-25.1-0.7-26.8,2c-1.4,2.2-0.5,4.2,3,5.9l3.3,1.6l-6.2,2.1c-9.6,3.2-13.6,8.4-9,11.3c1.8,1.1,1.8,1.3-0.5,3.1
	c-1.3,1-2.4,2.6-2.4,3.4c0,2.3,4.9,6.6,6.7,5.9c1.3-0.5,1.4-0.4,0.3,0.9c-1,1.2-1,2.1-0.2,4c1.6,3.4,4.4,3.2,14.2-1.1
	c8.8-3.9,11.3-3.8,6.2,0.2c-1.8,1.4-3.7,3.4-4.2,4.4c-1.3,2.4-0.3,5,1.9,5c1.9,0,11-5.8,16.2-10.4c2-1.7,5-3.9,6.7-4.8
	c2-1.1,3.7-3.2,4.8-5.8c1.3-3.2,2.1-4.1,4.1-4.1c1.3,0,5.4-0.7,9-1.6c5.7-1.4,10.5-3.6,27.4-12.4c3-1.6,21.7-5.9,25.5-5.9
	c0.7,0,2.2,0.8,3.4,1.8c2,1.6,2.3,3.8,4.1,27.2c2.8,35.9,2.8,36.2,3.9,37.3c0.7,0.7,4.2,0.5,10.7-0.6c5.3-0.9,10.1-1.4,10.6-1.1
	c0.5,0.3,0.8,1.7,0.8,3.2c0,2.1-1.7,4.1-7.1,8.7c-12.3,10.4-39.2,36.7-40.9,39.9c-0.9,1.7-2.2,5.7-2.8,9c-0.7,3.2-3.9,14.8-7.1,25.7
	c-3.2,10.9-5.9,20.3-5.9,20.8s1.4,2.6,3.2,4.6c2.9,3.2,3.1,3.9,2.2,7.2c-1.2,4.7-3.6,6.3-6.7,4.3c-10.5-6.7-13.4-8-17.2-8
	c-6.6,0-10.6,4.5-10.6,11.8c0,3.5,0.6,4.5,4.8,8.1c2.6,2.3,9.8,6.6,16,9.6s14,7.5,17.4,9.9c3.5,2.5,7.2,4.5,8.7,4.5
	c4,0,8.9-3.7,11.2-8.4c2.7-5.6,2.6-8.4-0.5-15.7c-2.6-6.1-2.5-6.9,0.6-10.4c1-1.1,4-7.2,6.8-13.5c13.6-31.2,19.5-43.7,21.5-45.7
	c2-2.1,32.3-20.3,33.7-20.3c0.3,0,7.3,7.5,15.4,16.8c11.8,13.4,16.8,20.1,25.3,33.8c5.8,9.4,12.1,18.9,14,21.2
	c6.6,8.1,7.8,14,4.4,21.4c-2.5,5.5-2.5,10.4-0.2,14.8c2.8,5.3,6.1,7.4,9.5,6.1c3.6-1.4,13.3-10.6,19.2-18.4
	c2.6-3.4,7.1-8.1,10.1-10.5c8.4-6.8,8.9-7.9,6.8-15.6c-2.8-10.2-8.8-14.3-19.5-13c-3,0.4-5.1,0.1-6.4-0.9c-1.7-1.3-1.7-1.8-0.6-5
	c1.2-3.2,1-4.3-1-9.9c-3.2-8.9-6.8-15.1-19.1-32.8c-5.9-8.5-13.1-19.7-16-24.8c-4.8-8.5-5.2-9.8-4.8-14.2c0.6-6.5-0.6-13.5-3.3-19.2
	l-2.2-4.7l3.2-3.6c2.6-3,3.1-4.2,2.6-6.8c-0.3-1.7-1.8-10.1-3.1-18.6s-3.2-19.1-4.1-23.4c-1.5-7.5-1.5-8,0.2-9.2
	c1-0.7,3.9-1.3,6.6-1.3c6.1,0,10.2,3.4,14.9,12.2c6.6,12.5,16.4,28.3,19.2,31.2l2.9,2.9l-1.7,3.9c-2.2,4.9-2.2,10.3,0.1,20.3
	c1.7,7.3,3.4,10.5,5.7,10.5c0.5,0,2-1.1,3.3-2.5c2-2,2.5-3.4,2.5-8c0-7.6,1.6-6.6,7.6,4.6c4.8,9,8.2,12.9,11.5,12.9
	c2.4,0,6-3.1,6.4-5.5c0.2-1.2,1.2-2.1,2.4-2.3c2.3-0.3,6.2-4.6,6.2-6.9c0-1.7-4.5-10.7-7.2-14.6c-3-4.3-0.7-3.3,3.3,1.4
	c3.4,3.9,3.8,4.1,6.2,3c3.2-1.5,3.4-4.7,0.7-10.2c-3.7-7.2-10.9-12.7-21.3-16c-3.6-1.2-3.7-1.4-3.6-5.4c0.3-7.1-17.1-48.5-22.7-54.1
	c-3.8-3.8-11.5-7.2-30.6-13.5c-12.5-4.1-16-5.7-17.3-7.7c-3.3-5.1-11.6-6.7-19.6-3.8c-4.2,1.5-4.4,1.5-6.1-0.8
	c-2.2-2.8-3.2-6.3-2.2-7.8c0.4-0.6,3.9-2.6,7.8-4.4c14.5-6.7,20.5-13.7,22.7-26.7c2.9-17.2-7.7-42.3-22.8-54.3
	C263.4,39.6,246.8,34.8,232.1,37.1 M228.8,44c-12.1,2.9-26.4,11.9-32.6,20.6c-5.1,7-5,7.1,11.8,6.7l14.8-0.3l10.9-5.5
	c10-5,11.5-5.5,18.7-5.9c7.2-0.3,8.4-0.1,14.2,2.8c8.3,4.1,15.1,10.3,20,18.5c2.2,3.6,4.3,6.6,4.6,6.6c0.8,0-0.4-5-2.5-10.8
	c-5.5-14.9-22.2-29.6-37.7-33.1C245,42.1,235.8,42.3,228.8,44 M211.4,82.9c-4.1,1.7-6.3,6.1-6.3,12.2c0,6.2,2.9,10.9,7.8,13
	c10.7,4.5,20.6-9,14.3-19.4C223.9,83.3,216.7,80.7,211.4,82.9 M246.6,134.3c-8.3,2.1-13.7,7.9-11.5,12.1c1.3,2.4,0.1,2.4,10.7,0
	c16.1-3.7,16.3-3.8,16.3-6.3c0-1.3-0.8-3-1.8-3.9C258.3,134.3,250.8,133.3,246.6,134.3 M252.6,154.1c-7.1,1.9-17.7,4.5-23.5,5.7
	c-11.4,2.4-13.2,3.9-8.2,6.8l2.9,1.6l0.7,17.9c1.1,29,3.7,66.7,4.8,69.7c1,2.7,4.7,4.5,6.6,3.3c0.5-0.3,12.1-2.4,25.8-4.6
	c14.2-2.3,25.4-4.6,26.2-5.4c1-1,1.1-2.2,0.2-5.4c-1.3-4.9-5.5-27.4-7.2-39.2c-1.4-9.1-1.4-9.2-10.3-16.4c-6.2-5-8.9-10.9-9-19.6
	c-0.1-5.3,0.4-7.4,2.7-11.4c2.8-5,3.3-6.7,2-6.5C266,150.5,259.8,152.1,252.6,154.1 M291.4,159c-6,2.5-5.5,10.3,0.9,13.7
	c2,1,8.8,3.2,15,4.8c16.3,4.1,16.1,4,21.5,14.4c7.9,15.3,17.4,32,19.4,34c1.6,1.7,2.2,1.8,4.9,0.6c2.3-0.9,3.1-1.9,3.1-3.8
	c0-1.4-2.9-8.9-6.4-16.6c-3.5-7.8-7.9-17.7-9.7-22c-4.9-11.7-6.9-13.4-23.4-19.1C294.6,157.4,295,157.4,291.4,159 M184.8,176.4
	c-12,2-11.4,1.7-29.7,15.7c-13.2,10.2-14.7,12.9-6.8,12.6c3.4-0.1,8.1-1.8,17.5-6.2c10-4.8,14.5-6.3,20.7-7.2
	c12.9-1.8,16.6-4,16.6-9.6c0-3.7-2.9-7.4-5.8-7.3C196.4,174.6,190.8,175.4,184.8,176.4 M256.5,275.4c-9.1,6.1-18.6,14-34.7,28.7
	c-15.4,14.2-17.7,17.1-17.7,22.5c0,1.8-3.2,12.5-7,23.7c-7.1,20.6-8,25.1-5.7,26.8c2.9,2.2,4.9,2.2,7.1,0
	c2.8-2.9,18.2-39.7,20.3-48.5c0.8-3.7,2-7.5,2.5-8.5c0.5-1,4.2-3.4,8.2-5.4c4-2,11-6.4,15.7-9.8s11.9-8.5,16.1-11.3
	c11.1-7.5,13.8-11.7,10.8-17.3c-1.1-2.1-5.9-4.9-8.3-4.9C263,271.4,259.7,273.2,256.5,275.4 M296.4,303.3c-7.2,7.8-7.5,5.9,3.5,19.3
	c5.5,6.7,6.8,7.8,9.6,7.8c4.9,0,7.4,2.4,9.2,8.8c0.9,3.1,4.3,11.9,7.7,19.5c5.2,11.9,6.4,13.8,8.3,13.8c2.6,0,8.4-4.5,8.4-6.6
	c0-0.8-2.6-6-5.7-11.7c-3.1-5.6-7.2-13.6-9.1-17.8c-3.4-7.3-24-40.1-25.1-39.9C302.9,296.5,299.8,299.6,296.4,303.3 M362.1,387.8
	c-8.4,6.2-11,9.3-10.9,13.1c0,1.5,0.6,1,2-1.7c1.1-2,4-5.4,6.6-7.5c7-5.8,12-10.3,11.4-10.2C370.9,381.5,366.8,384.4,362.1,387.8
	 M320.2,435.1c-24.6,0.3-28.7,0.6-30.2,2c-1.8,1.7-2.4,5.9-1,7.9c1,1.5,113.6,2.8,116.3,1.3c2.8-1.5,2.4-6.1-0.6-9
	c-2.5-2.4-2.6-2.4-29.2-2.5C360.6,434.8,335.8,434.9,320.2,435.1 M135.8,437.2c-1.7,1.9-2.2,5.8-0.9,7.9c0.6,0.9,15.1,1.2,58.2,1.3
	c31.6,0.1,58,0.1,58.7,0.1c2.2-0.1,1.4-6-1.2-8.6l-2.5-2.5h-55.4C140.4,435.4,137.3,435.5,135.8,437.2"/>
</svg>
